<svg xmlns="http://www.w3.org/2000/svg" width="18" height="15" viewBox="0 0 18 15">
  <g id="noun_Left_1854015" opacity="0.998">
    <g id="Group_1563" data-name="Group 1563">
      <path id="Path_429" data-name="Path 429" d="M7.713,291.7a.886.886,0,0,0-.617.283L.8,298.516a.959.959,0,0,0,0,1.324l6.3,6.533a.881.881,0,0,0,.894.3.917.917,0,0,0,.665-.689.955.955,0,0,0-.289-.928l-4.758-4.941H17.632a.934.934,0,0,0,0-1.867H3.6l4.764-4.942a.959.959,0,0,0,.206-1.036.9.9,0,0,0-.858-.571Z" transform="translate(-0.532 -291.699)" fill="#47971d" fill-rule="evenodd"/>
    </g>
  </g>
</svg>
