<svg xmlns="http://www.w3.org/2000/svg" width="27.505" height="29.203" viewBox="0 0 27.505 29.203">
  <g id="noun_sell_1171646" transform="translate(-7.899 -5.3)">
    <path id="Path_9227" data-name="Path 9227" d="M31.125,21.894v-.653h1.617l.849-8.1H13.959l.555,5.161h1.715v.653H14.579L15.2,24.7H30.716v.653H15.265l.1.98H32.2l.474-4.443Zm1.633,7.741a2.785,2.785,0,0,1,.849,2.042A2.9,2.9,0,0,1,30.749,34.5a2.758,2.758,0,0,1-2.026-.833,2.792,2.792,0,0,1-.833-1.993,2.864,2.864,0,0,1,4.867-2.042ZM29.867,30.8a1.267,1.267,0,0,0-.343.882,1.11,1.11,0,0,0,.359.833,1.181,1.181,0,0,0,.866.359,1.154,1.154,0,0,0,.849-.343,1.171,1.171,0,0,0,.376-.85A1.206,1.206,0,0,0,31.6,30.8a1.12,1.12,0,0,0-.849-.343A1.229,1.229,0,0,0,29.867,30.8Zm3.79-2.826H13.877L12.146,11.588h.017l-.507-4.655H7.9V5.3h5.243l.653,6.206H35.4Zm-8.771-5.194h-2.45V19.445h-2.5l3.708-4.786,3.691,4.786h-2.45v3.332Zm-10.7,8.9a2.845,2.845,0,0,1,2.858-2.858,2.636,2.636,0,0,1,2.009.833,2.755,2.755,0,0,1,.833,2.025A2.845,2.845,0,0,1,17.045,34.5a2.756,2.756,0,0,1-2.025-.833A2.793,2.793,0,0,1,14.187,31.677Zm2.858-1.225a1.228,1.228,0,0,0-.882.343,1.267,1.267,0,0,0-.343.882,1.108,1.108,0,0,0,.36.833,1.18,1.18,0,0,0,.865.359,1.1,1.1,0,0,0,.833-.343l.033-.016a1.134,1.134,0,0,0,.343-.833A1.2,1.2,0,0,0,17.9,30.8v-.017A1.151,1.151,0,0,0,17.045,30.453Z" fill="#737373" fill-rule="evenodd"/>
  </g>
</svg>
