<svg xmlns="http://www.w3.org/2000/svg" width="21.854" height="17.292" viewBox="0 0 21.854 17.292">
  <g id="Group_37" data-name="Group 37" transform="translate(0.5 0.5)">
    <path id="Path_130" data-name="Path 130" d="M23.361,14.783H7.493A2.494,2.494,0,0,0,5,17.272V28.586a2.494,2.494,0,0,0,2.493,2.489H23.361a2.494,2.494,0,0,0,2.493-2.489V17.272A2.494,2.494,0,0,0,23.361,14.783Zm0,.452a2.028,2.028,0,0,1,1.185.382l-7.809,6.525a2.043,2.043,0,0,1-2.62,0L6.308,15.618a2.029,2.029,0,0,1,1.185-.382ZM25.4,28.586a2.04,2.04,0,0,1-2.04,2.036H7.493a2.04,2.04,0,0,1-2.04-2.036V17.272a2.024,2.024,0,0,1,.515-1.348l7.858,6.565a2.5,2.5,0,0,0,3.2,0l7.858-6.565a2.023,2.023,0,0,1,.515,1.348V28.586Z" transform="translate(-5 -14.783)" fill="#47971d" stroke="#47971d" stroke-width="1"/>
  </g>
</svg>
