<svg xmlns="http://www.w3.org/2000/svg" width="33.165" height="34.7" viewBox="0 0 33.165 34.7">
  <path id="Path_9226" data-name="Path 9226" d="M33.021,16.426c-.545.195-1.061.769-1.665.764a.1.1,0,0,0-.083-.039,4.542,4.542,0,0,0-1.544.511.429.429,0,0,0,.044-.239.09.09,0,0,0-.107-.068,4.378,4.378,0,0,0-1.047.438,4.708,4.708,0,0,1-.657.443c.019-.063.034-.127.049-.19a.063.063,0,0,0-.054-.083,1.871,1.871,0,0,0-.915.258c-.331.156-.677.287-1.008.443a.881.881,0,0,0,.122-.307c.01-.058-.054-.1-.107-.088a4.285,4.285,0,0,0-1.339.614c-.268.156-.54.3-.8.472a4.234,4.234,0,0,0-.37.292c.054-.122.112-.243.156-.37.034-.093-.058-.166-.146-.156a3.874,3.874,0,0,0-1.276.6,4.079,4.079,0,0,0-.575.385c-.049.044-.1.083-.151.127a.123.123,0,0,0-.175-.1,1.617,1.617,0,0,1-.3.078,6.749,6.749,0,0,1,.94-.667c.336-.234.769-.531.808-.979a.119.119,0,0,0-.117-.122c-.068,0-.136,0-.209-.01.287-.3.545-.633.862-.911.268-.234.628-.5.682-.872a.11.11,0,0,0-.117-.117c.156-.17.307-.351.453-.536.2-.253.433-.5.614-.769a.51.51,0,0,0,.112-.463.226.226,0,0,0-.219-.127A8.289,8.289,0,0,0,26.3,12.506c.029-.063,0-.175-.088-.166a1.875,1.875,0,0,0-.248.044,10.585,10.585,0,0,0,1.027-1.675c.034-.083-.058-.156-.131-.141a1.261,1.261,0,0,1-.234.019C27.4,8.942,28.3,7.359,29.16,5.757c.054-.1-.049-.243-.166-.175a6.755,6.755,0,0,0-1.139,1.066c0-.015,0-.024.01-.039a.116.116,0,0,0-.19-.117c-.6.506-1.11,1.154-1.758,1.6a1.242,1.242,0,0,1,.024-.131c.024-.107-.107-.214-.195-.122-.521.55-.945,1.183-1.456,1.743a1.173,1.173,0,0,1,.034-.18c.024-.1-.088-.234-.195-.156a7.123,7.123,0,0,0-1.7,1.86.134.134,0,0,0-.195-.01A7.51,7.51,0,0,0,21,12.657c0-.063,0-.127,0-.19,0-.088-.117-.166-.19-.088a5.419,5.419,0,0,0-1.081,2.357.109.109,0,0,0-.146.024,7.106,7.106,0,0,0-.911,2.926.935.935,0,0,1-.068-.073.113.113,0,0,0-.19.044,14.868,14.868,0,0,0-.346,1.534,5.837,5.837,0,0,1-.458,1.383c0-.01,0-.024,0-.034a.124.124,0,0,0-.18-.112c-.039.024-.083.054-.122.073a5.265,5.265,0,0,1,.414-.808,1.328,1.328,0,0,0,.273-.837.121.121,0,0,0-.141-.088h0a.058.058,0,0,0-.093-.058c-.044.044-.083.088-.122.131-.024.01-.049.024-.073.034a5.854,5.854,0,0,1,.988-1.889c.058-.1-.054-.243-.161-.17l-.058.044a.045.045,0,0,0-.058-.02.4.4,0,0,0-.063.034,11.074,11.074,0,0,1,.57-1.217,2.381,2.381,0,0,0,.438-1.066.119.119,0,0,0-.112-.122,1.134,1.134,0,0,0-.365.107,9.019,9.019,0,0,1,.4-.813,1.6,1.6,0,0,0,.243-.8c-.034-.3-.321-.219-.56-.127.17-.511.278-1.047.4-1.568a2.4,2.4,0,0,0,.166-1.3.114.114,0,0,0-.161-.073,1.638,1.638,0,0,0-.219.156,7.214,7.214,0,0,1,.161-.847,4.228,4.228,0,0,0,.068-.74c0-.156,0-.351-.151-.443A.256.256,0,0,0,18.856,8c.063-.292.107-.584.141-.881a2.3,2.3,0,0,0,.034-1.076.109.109,0,0,0-.18-.054c-.093.078-.17.175-.258.258a6.941,6.941,0,0,0,0-1.88.1.1,0,0,0-.136-.063,2.449,2.449,0,0,0-.346.2,2.574,2.574,0,0,1,.054-.375,1.6,1.6,0,0,0,0-.482,7.027,7.027,0,0,1-.2-1.052.111.111,0,0,0-.2-.063.876.876,0,0,1-.195.243,9.594,9.594,0,0,0-.243-1.227A5.179,5.179,0,0,0,16.8.167c-.01-.015-.024-.015-.029,0,0-.044-.01-.093-.015-.136s-.058-.034-.063,0c-.161.7-.336,1.4-.511,2.1a7.778,7.778,0,0,0-.2.886c-.015.1,0,.2-.01.307-.01.224-.156.1-.273.029a.125.125,0,0,0-.17.039c-.243.409-.01.833-.049,1.256-.063-.044-.122-.1-.18-.146a.122.122,0,0,0-.19.019,1.228,1.228,0,0,0-.093.769A8.455,8.455,0,0,1,15.1,6.4c-.093-.044-.18-.107-.273-.141a.134.134,0,0,0-.151.058c-.365.594-.063,1.2.019,1.821a.357.357,0,0,0-.3-.083c-.209.039-.253.3-.248.467,0,.56.39,1.125.312,1.685a.34.34,0,0,0-.224-.093c-.161.015-.2.209-.219.336a3.645,3.645,0,0,0,.058.891,3.511,3.511,0,0,0,.146.633c-.054-.088-.1-.18-.161-.273a.088.088,0,0,0-.161.015.98.98,0,0,0-.049.17s0,0,0-.01-.044,0-.029.019a.45.45,0,0,1,.024.049,4.288,4.288,0,0,0,.258,1.918.154.154,0,0,0-.17.083,1.152,1.152,0,0,0-.054.725,2.037,2.037,0,0,0,.161.652,4.107,4.107,0,0,1,.2.477c.044.127.112.321-.088.273a.1.1,0,0,0-.122.063,10.16,10.16,0,0,0,.024,1.845c-.029,0-.063,0-.1-.01a.106.106,0,0,0-.122.063c-.083-.278-.156-.56-.229-.837a.159.159,0,0,0-.263-.073,1.693,1.693,0,0,0-.239.443c-.063-.248-.068-.521-.107-.764a4.158,4.158,0,0,0-.292-1.193.14.14,0,0,0-.214-.034,1.46,1.46,0,0,0-.195.351c-.351-.76-.107-1.792-.886-2.327a.125.125,0,0,0-.19.1,3.61,3.61,0,0,1,0,.4c-.185-.477-.292-.984-.5-1.456a2.919,2.919,0,0,0-.818-1.232.1.1,0,0,0-.156.058c-.01.044-.019.093-.029.136a4.462,4.462,0,0,0-.467-1.086c-.156-.219-.346-.409-.5-.638a2.694,2.694,0,0,0-.4-.589.115.115,0,0,0-.195.1c.019.088.044.175.063.263-.131-.19-.185-.438-.331-.623-.278-.346-.584-.662-.847-1.023-.078-.107-.224,0-.209.112s.039.224.054.336c-.214-.239-.394-.506-.628-.726a6.958,6.958,0,0,0-.833-.818c-.093-.063-.18.049-.146.136.073.185.17.365.234.555a2.472,2.472,0,0,1-.6-.433c-.214-.185-.409-.394-.623-.575-.088-.073-.214.034-.131.122A3.562,3.562,0,0,1,4.7,8.007c.136.4.477.774.472,1.212a4.7,4.7,0,0,0-.57-.112c-.015-.01-.029-.024-.044-.034s-.039.01-.024.029l.01.01a.624.624,0,0,0-.131.024.112.112,0,0,0-.054.185,8.9,8.9,0,0,1,.76.9,3.555,3.555,0,0,1,.648.706A4.066,4.066,0,0,0,5.12,11a.112.112,0,0,0-.083.136,2.322,2.322,0,0,0,.915.94c-.093,0-.185-.015-.273-.019a.12.12,0,0,0-.068.219,11.463,11.463,0,0,1,2.2,1.982,2.21,2.21,0,0,0-.351.063.126.126,0,0,0-.034.229c.316.224.575.511.867.76.195.166.4.316.589.492-.268,0-.56-.044-.726.18a.131.131,0,0,0,.039.175A8.777,8.777,0,0,1,9.62,17.2a1.345,1.345,0,0,0-.667,0,.134.134,0,0,0-.083.19,3.021,3.021,0,0,0,.891.847c.263.2.565.409.818.643-.224-.01-.453.01-.56.19a.14.14,0,0,0,.015.161c.609.6,1.441.964,2,1.617a1.11,1.11,0,0,0-.39.078.094.094,0,0,0-.063.078l-.784-.7a4.589,4.589,0,0,0-1.256-.974c-.1-.039-.18.068-.166.161a.965.965,0,0,0,.039.161c-.273-.209-.516-.453-.784-.662s-.638-.536-1.023-.448a.132.132,0,0,0-.083.19,1.255,1.255,0,0,0,.156.239c-.8-.36-1.5-.94-2.327-1.261a.134.134,0,0,0-.156.19,2.112,2.112,0,0,0,.185.229h0a2.567,2.567,0,0,1-.316-.2c-.185-.122-.355-.258-.531-.385a2.763,2.763,0,0,0-1.315-.73.122.122,0,0,0-.127.122.371.371,0,0,0,.083.263.555.555,0,0,0,.073.083c-.195-.122-.36-.3-.55-.424a3.91,3.91,0,0,0-.891-.472.122.122,0,0,0-.141.063,5.519,5.519,0,0,0-1.5-1.183c-.1-.049-.229.073-.136.161A3.308,3.308,0,0,1,.616,16.46a5.369,5.369,0,0,1,.492.954C.821,17.39.5,17.3.329,17.594a.11.11,0,0,0,.034.146c.341.263.7.5,1.047.76a3.269,3.269,0,0,1,.282.234c.068.063.054.054-.024.068-.131.029-.268.039-.4.078a.121.121,0,0,0-.034.219,7.587,7.587,0,0,0,1.363.643c.17.073.346.131.516.2a1.473,1.473,0,0,1,.428.214c-.185.083-.375.156-.56.229-.117.049-.078.224.029.258.687.219,1.422.268,2.1.5a.767.767,0,0,0-.385.209c-.058.063-.054.195.049.214a16.13,16.13,0,0,1,2.756.623c-.117.034-.234.068-.346.112a.128.128,0,0,0,.024.234c.769.195,1.587.166,2.347.38a.652.652,0,0,0-.287.1.151.151,0,0,0-.058.078,7.242,7.242,0,0,0-1.125-.039.167.167,0,0,0-.161.2.863.863,0,0,0,.161.375c-.682-.058-1.344-.219-2.016-.331a.96.96,0,0,0-.618.019c-.141.088-.117.209-.049.321a5.816,5.816,0,0,1-1.539.054,12.964,12.964,0,0,0-1.792.063c-.136,0-.214.2-.078.268a4.872,4.872,0,0,0,1.758.278,6.029,6.029,0,0,1,1.733.448c-.2.175-.424.316-.628.492-.122.107,0,.268.136.248a2.957,2.957,0,0,1,1.709.058,5.2,5.2,0,0,1-.7.516.158.158,0,0,0,.073.292,7.324,7.324,0,0,0,1.3-.219A2.516,2.516,0,0,1,8.626,26.1c-.131.093-.278.166-.424.248a.15.15,0,0,0,.068.278c.453.01.9-.01,1.354-.029a.047.047,0,0,0,.068.01s.01-.01.015-.01c.38-.015.76-.029,1.139-.029a5.8,5.8,0,0,0-.521.516.137.137,0,0,0,.093.234,4.92,4.92,0,0,0,1.485-.365,7.414,7.414,0,0,0,.779-.278c.292-.131.575-.3.852-.453.453-.248.93-.443,1.358-.73.024-.019.054-.039.083-.058.01-.01.024-.015.034-.024a4.787,4.787,0,0,1,.01.876c-.073.453-.19.906-.273,1.359a11.117,11.117,0,0,1-.307,1.324,10.618,10.618,0,0,1-.516,1.3,8.756,8.756,0,0,0-.769,2.435,10.47,10.47,0,0,0-.024,1.105,2.439,2.439,0,0,0,.039.463c.019.1.073.195.1.292a.18.18,0,0,0,.224.127,8.932,8.932,0,0,1,2.084-.443c.136-.019.17-.195.117-.3a3.409,3.409,0,0,1-.394-2.181c.146-.764.516-1.475.735-2.225a10.775,10.775,0,0,0,.4-2.259,14.838,14.838,0,0,0-.18-2.026,1.561,1.561,0,0,1,.823.652,1.193,1.193,0,0,0,.545.195.12.12,0,0,0,.122-.151c-.019-.058-.029-.122-.044-.18a3.578,3.578,0,0,1,.5.312,4.872,4.872,0,0,0,.716.351,9.412,9.412,0,0,0,.935.351c.024.01.054.015.078.024.019.029.034.063.054.093a.039.039,0,0,0,.073-.024c0-.01,0-.024,0-.034a.688.688,0,0,0,.385,0c.151-.063.1-.209.019-.336a12.568,12.568,0,0,1,1.923.385.105.105,0,0,0,.107-.131,1.01,1.01,0,0,1-.039-.2c.282.078.54.229.818.321a.521.521,0,0,0,.088.093.051.051,0,0,0,.078-.039v0c.054.01.107.019.161.024a.481.481,0,0,0,.433-.166.456.456,0,0,0,.054-.156c.024-.136.341-.029.463,0,.029.039.063.073.093.107a.075.075,0,0,0,.127-.068h0c.511.058,1.027-.122,1.539-.029.492.088.979.312,1.461.058a.123.123,0,0,0-.024-.224c-.633-.243-1.256-.5-1.889-.745a9.02,9.02,0,0,1-1.373-.487,2.749,2.749,0,0,0,.355-.317.128.128,0,0,0-.073-.19,4.965,4.965,0,0,0-1.315-.1c.044-.073.088-.141.131-.214a.121.121,0,0,0-.1-.185,4.232,4.232,0,0,0-.959.146c.024-.049.049-.093.078-.141.068-.112-.034-.209-.146-.2-.093.01-.185.024-.278.039a.122.122,0,0,0-.063-.1.018.018,0,0,0-.015,0c.19,0,.385,0,.575-.01a4.388,4.388,0,0,0,1.31-.18.1.1,0,0,0,.073-.117A.388.388,0,0,0,24,23.6c.521-.093,1.037-.2,1.553-.292.375-.063.891-.1,1.149-.419.039-.049,0-.117-.049-.141a1.69,1.69,0,0,0-.351-.093c.609-.253,1.237-.463,1.831-.75a.087.087,0,0,0,0-.151,2.633,2.633,0,0,0-.336-.156,8.271,8.271,0,0,1,1.091-.424,1.718,1.718,0,0,0,.92-.526.108.108,0,0,0-.034-.146.583.583,0,0,0-.219-.073c.448-.19.979-.326,1.139-.808a.111.111,0,0,0-.073-.141.578.578,0,0,0-.127-.01c.516-.433,1-.906,1.475-1.383.263-.263.5-.555.74-.837a1.608,1.608,0,0,0,.443-.667C33.181,16.5,33.118,16.392,33.021,16.426ZM3.577,24a.062.062,0,0,0-.029,0c-.175-.01-.355-.015-.536-.029a4.647,4.647,0,0,1,.9.015c.019,0,.044,0,.063.01A3.636,3.636,0,0,1,3.577,24Zm28.066-6.607c.044-.01.093-.024.136-.039-.131.073-.268.141-.4.2-.643.3-1.276.618-1.914.93-.078.039-.161.078-.243.112.039-.063.073-.127.112-.185.019-.029.039-.054.058-.083C30.143,18.028,30.893,17.711,31.643,17.395Zm-1.967.5c.268-.083.511-.2.779-.3a2.836,2.836,0,0,1,.735-.219.1.1,0,0,0,.029.019c-.55.239-1.1.472-1.656.711A.821.821,0,0,0,29.676,17.891Zm-1.714.5a1.741,1.741,0,0,0,.6-.346,3.479,3.479,0,0,1,1.018-.477,1.108,1.108,0,0,1-.136.219.089.089,0,0,0,.029.127,2.283,2.283,0,0,0-.229.307c0,.01-.015.02-.019.029-.282.122-.56.243-.842.36-.243.1-.482.209-.726.312,0-.01.01-.024.015-.034C27.757,18.719,27.879,18.558,27.962,18.393Zm1.105.083a.976.976,0,0,0-.122.248c-.472.2-.959.37-1.436.555.024-.058.054-.117.078-.18l1.135-.477C28.833,18.578,28.95,18.529,29.067,18.476Zm-2.9.4a.054.054,0,0,0,0-.078c.258-.122.526-.229.789-.336a3.5,3.5,0,0,1,.911-.365c-.019.073-.054.146-.073.214a.07.07,0,0,0,.015.068,1.615,1.615,0,0,0-.229.317,3.484,3.484,0,0,0-.175.331l-1.845.794c.029-.068.058-.131.093-.2A2.237,2.237,0,0,1,26.17,18.875Zm1.178.326a1,1,0,0,0-.034.156c-.292.117-.579.239-.862.37a.069.069,0,0,0-.058.029c-.317.146-.628.3-.935.458-.015.01-.029.015-.044.024.015-.044.024-.088.039-.131s.034-.088.049-.131Zm-2.522-.156a4.515,4.515,0,0,1,1.12-.575c-.054.127-.151.239-.195.365a.09.09,0,0,0,.127.107c.015-.01.034-.015.049-.024a2.548,2.548,0,0,0-.428.6,3.816,3.816,0,0,0-.224.433c-.424.18-.842.36-1.266.545.058-.136.122-.273.185-.409.107-.214.219-.428.346-.633C24.621,19.328,24.748,19.191,24.826,19.045Zm.394,1.29c-.234.122-.463.248-.691.38a5.726,5.726,0,0,1-.726.331c.029-.073.049-.156.068-.209s.054-.141.078-.209c.424-.175.847-.355,1.271-.531A.4.4,0,0,0,25.22,20.336Zm-4.1.424s0,0,0-.01a7.333,7.333,0,0,0,1.125-.7,7.947,7.947,0,0,1,1.144-.633,2.609,2.609,0,0,0-.18.506c-.015.088.068.195.166.136a6.375,6.375,0,0,0,.531-.428,4.407,4.407,0,0,1,.5-.331,5.432,5.432,0,0,0-.385.672q-.153.314-.278.643l-1.733.745c.112-.185.229-.365.351-.545s.248-.365.37-.555.312-.375.424-.589c.015-.024,0-.068-.039-.058a.886.886,0,0,0-.419.36c-.161.219-.3.453-.453.677a7.038,7.038,0,0,0-.54.838c-.5.214-.988.428-1.485.638.034-.063.068-.122.1-.18C20.556,21.538,20.9,21.183,21.116,20.759Zm2.464.375s-.01,0-.019,0c-.662.268-1.251.687-1.914.969s-1.32.5-1.972.764a2.727,2.727,0,0,0,.482-.657c.1-.039.19-.078.287-.122.4-.17.8-.336,1.2-.506a2.363,2.363,0,0,0-.151.428.069.069,0,0,0,.131.044,6.213,6.213,0,0,1,.307-.594c.584-.243,1.169-.492,1.748-.735A.936.936,0,0,0,23.579,21.134ZM19.46,22.965a8.813,8.813,0,0,1-1.826.662c-.282.054-.565.122-.852.17-.112.019-.229.044-.351.068.19-.049.375-.1.56-.166a5.433,5.433,0,0,0,1.256-.687c.536-.224,1.071-.448,1.612-.672-.127.195-.278.38-.394.579A.047.047,0,0,0,19.46,22.965Zm-2.917-.7a2.805,2.805,0,0,0-.633,1.091l-.1.19c-.024.044.044.068.073.034.312-.355.609-.716.915-1.076a4.952,4.952,0,0,0,.915.068c.2.015.419.044.628.044a6.2,6.2,0,0,1-1.563.862c-.316.107-.691.146-1.013.273a.1.1,0,0,0-.063.01,5.9,5.9,0,0,1,.36-.847,4.6,4.6,0,0,1,.54-.726C16.582,22.21,16.563,22.235,16.543,22.264Zm.058.166c-.078.088-.151.175-.224.263.073-.093.146-.18.224-.263Zm3.413-1.12c-.433.336-.857.691-1.29,1.023-.146.015-.292.029-.438.029-.248,0-.5-.024-.74-.024-.2,0-.4.01-.609,0,.1-.112.195-.224.292-.331.18-.2.36-.4.531-.6.058-.015.117-.024.18-.034.326-.054.657-.029.979-.093a11.969,11.969,0,0,0,1.315-.229c.078-.024.161-.054.243-.088C20.322,21.076,20.166,21.193,20.015,21.309Zm.652-.175a4.334,4.334,0,0,0-.428.579c-.112.18-.219.365-.326.545-.5.214-1,.433-1.5.648.063-.044.122-.088.185-.131.536-.385,1.032-.813,1.548-1.222C20.322,21.412,20.5,21.275,20.668,21.134Zm-1.626,3.131c-.17-.112-.346-.214-.526-.316-.1-.054-.195-.1-.292-.156a.824.824,0,0,0-.175-.058,8.045,8.045,0,0,0,1.222-.458,2.036,2.036,0,0,0,1.018.531,3.984,3.984,0,0,0,1.173.331.1.1,0,0,0,.093-.049.018.018,0,0,0,0-.015,1.073,1.073,0,0,1,.18.039,2.84,2.84,0,0,1-.764.17,8.4,8.4,0,0,0-1.3.17.133.133,0,0,0-.1.127c-.024-.01-.049-.024-.068-.034A2.8,2.8,0,0,1,19.041,24.265Zm.351.521c-.2,0-.4,0-.6-.019a5.233,5.233,0,0,1-1.4-.248,10.25,10.25,0,0,1-.984-.414c-.054-.024-.112-.054-.17-.078.19-.01.385-.039.575-.063a10.14,10.14,0,0,0,1.076-.185,1.557,1.557,0,0,0,.492.39c.214.122.424.253.628.39A2.57,2.57,0,0,0,19.392,24.786Zm3.17-6.1c-.117.36-.628.618-.9.8a2.72,2.72,0,0,0-1.018.872.128.128,0,0,0,.107.195,4.173,4.173,0,0,1-.5.234,6.471,6.471,0,0,1-1.144.2c-.282.044-.555.112-.842.146-.1.01-.209.019-.312.039.19-.234.375-.467.55-.716.156-.219.307-.438.458-.662a.558.558,0,0,1,.112-.049,2.129,2.129,0,0,1,.385-.068,6.584,6.584,0,0,0,.823-.131,9.392,9.392,0,0,0,1.139-.312,4.111,4.111,0,0,0,.872-.536l.01-.01C22.391,18.685,22.474,18.69,22.562,18.69Zm.5-1.227c-.346.3-.614.687-.945,1a.134.134,0,0,0,.01.195,7.909,7.909,0,0,1-.906.4c-.409.122-.823.219-1.237.321-.127.034-.536.054-.847.136.18-.273.355-.55.526-.823a5.83,5.83,0,0,0,1.13-.351c.365-.127.73-.258,1.086-.409a11.156,11.156,0,0,0,1.081-.536c.161-.093.316-.2.472-.307a1.661,1.661,0,0,0,.278-.209A3.918,3.918,0,0,1,23.063,17.463Zm1.475-2.045c-.375.419-.7.876-1.11,1.266a.116.116,0,0,0,0,.166s-.015.01-.019.015c-.161.1-.321.19-.487.282-.351.195-.711.37-1.081.531s-.774.316-1.169.463c-.258.093-.555.161-.823.268.331-.536.648-1.081.969-1.621a1.047,1.047,0,0,1,.39,0,1.717,1.717,0,0,0,.5-.063,3.6,3.6,0,0,0,1.042-.54c.375-.219.823-.273,1.2-.482a4.694,4.694,0,0,0,.847-.584A2.117,2.117,0,0,1,24.539,15.418Zm-.078-.682a.122.122,0,0,0,.112.2,1.093,1.093,0,0,1,.243-.054c-.312.166-.6.375-.906.55-.385.219-.828.282-1.217.477a5.65,5.65,0,0,1-1.042.56,2.161,2.161,0,0,1-.56.083c-.049,0-.1,0-.146.01.292-.492.589-.984.886-1.47a.571.571,0,0,0,.331-.049,5.315,5.315,0,0,0,.6-.243c.419-.2.837-.4,1.242-.628a9.759,9.759,0,0,0,1.9-1.363A9.132,9.132,0,0,1,24.461,14.736Zm-2.522.18q.358-.584.73-1.154H22.7c.482-.166.988-.253,1.48-.4a4.944,4.944,0,0,0,1.441-.677.11.11,0,0,0,.1.019l.083-.029c-.243.195-.482.39-.74.565-.38.263-.779.5-1.183.721-.38.209-.75.443-1.139.643a4.712,4.712,0,0,1-.623.268A1.631,1.631,0,0,1,21.939,14.916Zm4.411-4.261a.111.111,0,0,0,.117.166,1.11,1.11,0,0,1,.127-.01c-.029.015-.058.039-.1.063a1.469,1.469,0,0,1-.419.209,3.3,3.3,0,0,0-.735.438,4.279,4.279,0,0,1-.837.467,8.416,8.416,0,0,0-.925.55.074.074,0,0,0,.068.131c.307-.131.57-.351.876-.492a5.8,5.8,0,0,0,.823-.394,4.537,4.537,0,0,1,.764-.492,2.171,2.171,0,0,0,.467-.268c-.3.516-.7.969-.984,1.49,0,0,0,0,0,.01a16.619,16.619,0,0,1-2.761.984c.083-.131.17-.258.258-.39.487-.725,1.013-1.417,1.558-2.1a5.738,5.738,0,0,0,1.061-.472c.321-.17.633-.326.935-.511C26.545,10.251,26.447,10.456,26.35,10.656Zm.355-.74c-.321.17-.672.3-1,.467-.292.151-.589.287-.891.428.3-.37.609-.74.915-1.11s.6-.745.9-1.115a1.541,1.541,0,0,0,.906-.336C27.261,8.805,26.978,9.36,26.705,9.916Zm.911-1.8c-.17.078-.351.136-.521.2-.1.034-.2.063-.307.1.175-.2.351-.409.536-.6.331-.341.682-.667.993-1.023C28.083,7.233,27.85,7.676,27.616,8.119Zm-.1-1.173-.015.044c-.049.122.107.18.19.122a4.272,4.272,0,0,0,.531-.5c-.282.336-.6.638-.92.949l-.063.063a5.5,5.5,0,0,0,.229-.638A.209.209,0,0,0,27.514,6.945ZM24.023,9.682a1.662,1.662,0,0,0,.01.268.13.13,0,0,0,.214.063c.428-.443.784-.94,1.169-1.417a4.76,4.76,0,0,0-.18.545,7.748,7.748,0,0,0-.268,1.091c0,.024.029.034.044.015a4.644,4.644,0,0,0,.321-.993c.093-.312.2-.609.312-.911a.112.112,0,0,0,.166.1A9.288,9.288,0,0,0,27.29,7.16c-.083.209-.141.428-.224.638v0c-.39.414-.735.867-1.1,1.3-.93,1.125-1.884,2.22-2.722,3.413-.078.117-.161.229-.239.346.049-.195.088-.394.122-.589a8.384,8.384,0,0,1,.268-1.027,6.913,6.913,0,0,1,.584-1.539A.339.339,0,0,0,24.023,9.682Zm-1.753,2a.135.135,0,0,0,.151-.058,9.985,9.985,0,0,1,1.368-1.729,6.225,6.225,0,0,0-.492,1.173,7.766,7.766,0,0,0-.263.93c-.073.38-.1.769-.2,1.144-.312.472-.614.949-.911,1.436,0-.112.024-.219.029-.331.024-.351.058-.7.1-1.047s.1-.672.166-1.008A2.885,2.885,0,0,0,22.27,11.678Zm-1.651,2.985c.019-.623.151-1.242.136-1.865a.085.085,0,0,1,.019-.024v.312a.122.122,0,0,0,.224.068,10.028,10.028,0,0,1,1.173-1.6.127.127,0,0,0,.034.083,3.623,3.623,0,0,1-.161.716c-.078.336-.136.677-.18,1.018s-.063.657-.088.988a1.3,1.3,0,0,0-.01.477c-.36.594-.711,1.2-1.061,1.8a.106.106,0,0,0-.024.039.1.1,0,0,1-.019.029,1.56,1.56,0,0,1-.054-.336c0-.175.019-.346.019-.521C20.629,15.447,20.609,15.057,20.619,14.663Zm-2.05,3.248a.555.555,0,0,1,.073.078.113.113,0,0,0,.19-.044,11.966,11.966,0,0,1,.691-2.717c-.063.463-.058.935-.117,1.4a2.553,2.553,0,0,0,.034.794c.049.3.029.609.1.9a.037.037,0,0,0,.073,0,1.912,1.912,0,0,0-.044-.643,4.768,4.768,0,0,1-.034-.949c.024-.282.058-.56.063-.847,0-.229,0-.458.024-.687,0,.015,0,.024,0,.039a.1.1,0,0,0,.195.01,7.086,7.086,0,0,1,.745-2.147c0,.151,0,.307-.01.448a13.092,13.092,0,0,0-.107,1.3c0,.414.039.828.039,1.247,0,.229-.073.55.1.725-.545.925-1.1,1.841-1.69,2.736-.073-.312-.1-.633-.166-.945-.044-.224-.127-.438-.185-.657A.065.065,0,0,0,18.569,17.911Zm-.852,2.873A9.68,9.68,0,0,0,18.5,18.2c.029.117.058.229.088.346a3.737,3.737,0,0,0,.307,1.027,1.046,1.046,0,0,1-.063.093.2.2,0,0,0-.054.078c-.024.034-.049.068-.068.1-.331.482-.677.949-1.047,1.4a1.167,1.167,0,0,0-.136.063.1.1,0,0,0-.049.078.1.1,0,0,0,.015.058c-.088.1-.18.209-.273.312-.166.185-.341.37-.511.56H16.69c.019-.024.039-.049.058-.078A13.673,13.673,0,0,0,17.717,20.784Zm-.054-1.7c.029-.015.058-.034.093-.049a2.4,2.4,0,0,1-.336.657,3.439,3.439,0,0,0-.438.974.134.134,0,0,0,.156.166,1.122,1.122,0,0,0,.136-.044,4.519,4.519,0,0,1-.312.433c-.2.268-.375.555-.589.813a5.46,5.46,0,0,0-.584.794,2.336,2.336,0,0,0-.161.355c0-.029,0-.058,0-.083.015-.351.058-.7.088-1.042a.075.075,0,0,0,0-.078c.01-.151.019-.307.024-.458.1-.122.195-.239.3-.36.209-.253.394-.526.6-.779.229-.282.433-.57.648-.867C17.391,19.376,17.542,19.235,17.663,19.084Zm-.375-.029a.125.125,0,0,0,.073.117c-.3.394-.55.813-.876,1.188-.2.234-.38.482-.575.721-.044.054-.1.112-.156.175.015-.492.029-.984.088-1.47h0a.055.055,0,0,0,.078.024,3.589,3.589,0,0,0,1.1-1.271,6.528,6.528,0,0,1,.545-.774c.136-.166.278-.321.424-.477l.044-.044H18.1A3.6,3.6,0,0,0,17.288,19.055ZM18.881,14.8a.074.074,0,0,0,.034-.054.2.2,0,0,0,.049-.019,3.911,3.911,0,0,1-.477.984c-.224.443-.433.9-.614,1.359a.121.121,0,0,0,0,.083c-.117.127-.229.263-.331.375a5.082,5.082,0,0,0-.526.682,4.542,4.542,0,0,1-1.154,1.48s-.01,0-.015.01c.083-.716.175-1.432.258-2.142a.062.062,0,0,0,.054-.024c.506-.506,1.018-1,1.534-1.49C18.107,15.656,18.4,15.091,18.881,14.8Zm.2-1.495c-.166.5-.516.911-.648,1.427a.122.122,0,0,0,.1.151c-.326.287-.57.677-.886.969-.521.477-1.027.974-1.509,1.485,0-.063.015-.122.019-.185a.062.062,0,0,0,0-.029c.044-.4.083-.8.122-1.193a.027.027,0,0,0,.024-.015,18.187,18.187,0,0,1,1.485-1.578c.243-.229.506-.433.764-.648a2.912,2.912,0,0,0,.579-.545C19.114,13.2,19.09,13.261,19.08,13.3Zm-.122-2.035c-.146.589-.287,1.173-.482,1.748-.029.088.063.2.156.166.136-.049.263-.112.394-.166A.406.406,0,0,1,19.085,13a2.376,2.376,0,0,0-.224.219c-.127.127-.268.243-.4.355-.278.229-.57.443-.833.691A8.076,8.076,0,0,0,16.3,15.759c.015-.175.029-.351.044-.531.034-.453.058-.906.088-1.359.579-.648,1.1-1.334,1.646-2.006a12.318,12.318,0,0,0,.735-1c.107-.166.273-.326.4-.5A7.243,7.243,0,0,1,18.959,11.269Zm.024-3.058c.034.034.029.156.029.18a4.328,4.328,0,0,1-.034.433,11.647,11.647,0,0,0-.214,1.422c0,.068.068.146.146.117a.615.615,0,0,0,.127-.063c-.127.156-.258.312-.375.477-.239.341-.472.677-.735,1-.526.643-.984,1.339-1.495,1.991q.029-.394.073-.789c.058-.492.127-.984.2-1.475a.044.044,0,0,0,.034-.015,8.354,8.354,0,0,0,1.1-1.592c.185-.3.39-.579.584-.867S18.822,8.494,18.983,8.211Zm-.146-1.777c-.015.2-.068.409-.1.609-.063.409-.127.808-.214,1.212a.129.129,0,0,0,.141.161c-.107.151-.209.3-.321.443-.214.282-.424.56-.623.852-.341.5-.667,1.027-.979,1.544.024-.17.049-.336.078-.506.088-.575.18-1.159.234-1.738a2.327,2.327,0,0,1,.424-.618c.185-.234.351-.487.531-.726A13.266,13.266,0,0,0,18.837,6.434Zm-.5.02c-.01.093.093.127.161.1a.6.6,0,0,0,.122-.068c-.078.122-.151.243-.229.36-.18.273-.385.526-.584.789s-.355.521-.55.774c-.058.078-.122.156-.175.239,0-.044,0-.083.01-.127a10.39,10.39,0,0,0-.044-1.29.039.039,0,0,0,.068-.019,3.655,3.655,0,0,1,.706-1.285,6,6,0,0,0,.618-1.042A11.325,11.325,0,0,1,18.34,6.454Zm-.526-3.3c.034.156.078.312.117.472.078.336-.034.682.029,1.023a.079.079,0,0,0,.112.054c.117-.054.224-.122.341-.175,0,.054.01.112.015.166A8.212,8.212,0,0,1,17.6,6a2.318,2.318,0,0,0-.56,1.11C17.016,6.819,17,6.531,17,6.249c0-.355,0-.711,0-1.071a5.728,5.728,0,0,1,.419-.993,4.7,4.7,0,0,0,.239-.633C17.7,3.42,17.761,3.289,17.814,3.152Zm-.75-1.636c.117.477.2.964.287,1.451a.112.112,0,0,0,.136.083.494.494,0,0,0,.219-.112,2.146,2.146,0,0,0-.19.487c-.078.239-.146.477-.243.706-.073.17-.18.37-.263.57V4.126c0-.433-.029-.867-.058-1.3,0-.278.049-.555.034-.833a15.3,15.3,0,0,0-.2-1.626C16.855.757,16.967,1.132,17.064,1.516Zm-.94,2.045a.861.861,0,0,0,.063-.351,3.308,3.308,0,0,1,.093-.526,19.406,19.406,0,0,0,.37-2.1c.015.467.083.93.107,1.407.015.3.01.6,0,.9a2.9,2.9,0,0,0,.019.355c0,.326-.01.648-.015.974-.01.57-.034,1.139-.044,1.7-.01-.024-.015-.054-.024-.078-.1-.278-.243-.54-.36-.808s-.19-.545-.3-.813c-.068-.175-.2-.355-.278-.54A.26.26,0,0,0,16.125,3.561ZM15.2,6.678a.13.13,0,0,0,.131-.127,7.715,7.715,0,0,0-.058-1.061c-.015-.141-.044-.307-.049-.463a4.909,4.909,0,0,0,.195.589c.151.419.351.818.506,1.237.122.331.2.682.316,1.018.083.239.2.633.448.755.044.019.073-.034.058-.068-.044-.117-.131-.219-.18-.336a4.665,4.665,0,0,1-.19-.516c-.1-.312-.161-.638-.258-.95-.117-.365-.273-.721-.414-1.076a6.116,6.116,0,0,1-.234-.652,1.283,1.283,0,0,1-.034-.146.537.537,0,0,0,.078.034.111.111,0,0,0,.141-.073c.093-.341-.068-.735-.019-1.081a2.137,2.137,0,0,0,.1.214,7.712,7.712,0,0,1,.37.964c.112.3.263.594.39.891.088.209.083.511.224.7,0,.76.112,1.509.054,2.269-.044.55-.122,1.1-.2,1.636-.029-.049-.049-.112-.063-.131a3.888,3.888,0,0,1-.239-.443c-.209-.419-.39-.857-.565-1.29q-.278-.679-.54-1.359c-.078-.195-.141-.428-.243-.628A.557.557,0,0,0,15.2,6.678Zm-.633,1.69a2.008,2.008,0,0,0,.19.166.132.132,0,0,0,.2-.107c.01-.536-.3-1.12-.2-1.651.068.195.166.39.239.565.2.5.4,1,.618,1.495.195.443.39.891.628,1.315.054.093.17.331.312.375-.029.18-.054.365-.083.545-.068.443-.136.886-.2,1.334-.107-.248-.239-.492-.355-.73-.19-.39-.394-.769-.56-1.169-.3-.721-.687-1.412-.945-2.147C14.44,8.3,14.489,8.294,14.567,8.367Zm-.083,2.128a.117.117,0,0,0,.151-.083,2.384,2.384,0,0,0-.156-1.324c-.019-.073-.039-.151-.054-.229l.112.224c.185.385.37.764.555,1.149.2.419.38.842.584,1.261.185.385.365.784.565,1.159-.024.195-.049.39-.068.584-.063.575-.093,1.154-.127,1.733-.131-.312-.248-.633-.394-.945a6.312,6.312,0,0,1-.331-.769c-.093-.278-.161-.555-.248-.833a9.887,9.887,0,0,0-.467-1.178,3.685,3.685,0,0,1-.224-.6,1.8,1.8,0,0,1-.034-.234A.427.427,0,0,0,14.484,10.495ZM14,11.941a1.272,1.272,0,0,0,.331.39.078.078,0,0,0,.117-.083,11.8,11.8,0,0,1-.195-1.3.083.083,0,0,0,0-.034c.015.034.024.063.034.088.17.438.39.857.54,1.3a16.124,16.124,0,0,0,.6,1.641c.117.248.229.492.326.745a4.94,4.94,0,0,0,.263.643c0,.054-.01.107-.01.161-.029.375-.063.75-.1,1.125-.015-.024-.024-.054-.039-.078-.1-.195-.17-.4-.253-.6-.19-.467-.3-.969-.482-1.441-.19-.5-.428-.974-.648-1.461a5.767,5.767,0,0,0-.506-.974A.729.729,0,0,0,14,11.941Zm.068,2.22a.239.239,0,0,1,.015-.063.573.573,0,0,1,.093.122.116.116,0,0,0,.214-.083,8.35,8.35,0,0,1-.419-1.889c.136.312.248.638.385.945.214.492.453.974.648,1.475.18.463.316.94.448,1.412a3.545,3.545,0,0,0,.224.57,1.25,1.25,0,0,0,.2.3c-.029.278-.058.555-.093.828-.01.083-.019.166-.034.243-.068-.151-.131-.307-.2-.458-.175-.39-.385-.764-.55-1.154s-.312-.76-.506-1.13c-.146-.282-.307-.555-.433-.847A2.6,2.6,0,0,1,14.065,14.161Zm.141,1.037a2.073,2.073,0,0,1-.136-.589c.219.6.536,1.169.75,1.777a11.892,11.892,0,0,0,.477,1.12,4.438,4.438,0,0,0,.4.857c-.058.414-.127.828-.18,1.246,0-.01,0-.015-.01-.024-.1-.229-.18-.463-.263-.7a6.5,6.5,0,0,0-.37-.872c-.166-.307-.331-.614-.477-.93a2.336,2.336,0,0,1-.18-.842C14.659,16.231,14.313,15.447,14.206,15.2Zm-.1,2.96a.1.1,0,0,0,.1-.093,3.717,3.717,0,0,0-.044-.93,7.162,7.162,0,0,0,.414.789,6.745,6.745,0,0,1,.472.959c.093.239.18.477.287.716.044.1.088.214.146.316,0,.044-.01.088-.015.136-.024.219-.039.433-.049.652a1.5,1.5,0,0,1-.083-.151,7.185,7.185,0,0,0-.321-.643c-.156-.268-.3-.54-.482-.794a5.75,5.75,0,0,1-.506-.682A1.852,1.852,0,0,1,14,18.149.8.8,0,0,1,14.109,18.159Zm1.061,4.718c-.039-.195-.054-.39-.078-.565a7,7,0,0,0-.239-1.052c.01.01.015.019.024.029a5.237,5.237,0,0,0,.521.657c0,.083,0,.161,0,.243,0,.326-.015.657,0,.984,0,.083.01.161.015.239C15.321,23.238,15.243,23.057,15.17,22.877Zm.209.818-.024-.01c-.029-.054-.058-.1-.088-.156l.024.024C15.321,23.6,15.351,23.651,15.38,23.7ZM12.931,23.4c.019-.015.044-.024.068-.039a1.457,1.457,0,0,0,.127-.073c.365.166.735.326,1.105.467-.039,0-.078-.015-.117-.019-.136-.029-.278-.058-.414-.078a5.966,5.966,0,0,0-.833-.093A.158.158,0,0,0,12.931,23.4Zm-.141-.088c-.949-.18-1.923-.107-2.873-.234l.049-.015a7.315,7.315,0,0,0,1.13-.093q.351-.044.7-.117c.088-.019.175-.039.268-.054.2.093.4.18.609.278.093.044.185.088.278.127A.924.924,0,0,0,12.789,23.316Zm-.531.19-.083.015-.073-.029A.8.8,0,0,1,12.259,23.505Zm-.214-.024a.106.106,0,0,0-.015.024c-.117-.015-.239-.034-.355-.049C11.8,23.462,11.923,23.471,12.044,23.481Zm-.906.268c.185.029.37.054.56.078a.129.129,0,0,0,.093.054,2.659,2.659,0,0,0,.341,0c.166.019.336.034.5.049,0,0,.015.01.019.015.161.112.3.248.453.37-.185.01-.37.019-.55.024-.346.015-.687,0-1.032,0a1.42,1.42,0,0,0-.234-.18c-.146-.107-.287-.219-.433-.326-.073-.054-.146-.107-.224-.161C10.808,23.7,10.973,23.725,11.139,23.749Zm1.768.2a7,7,0,0,0,.959,0c.175.034.346.068.521.093a.491.491,0,0,0-.093.083c-.024,0-.044.015-.068.019a5.071,5.071,0,0,1-.911.146A2.166,2.166,0,0,0,12.906,23.948Zm1.422-.726a5.322,5.322,0,0,1-.823-.477c-.019-.015-.039-.034-.058-.049.1,0,.19.01.287.01h0c.146.049.292.093.438.127a.789.789,0,0,0,.516.034c.117.239.239.472.365.706C14.815,23.466,14.571,23.345,14.328,23.223ZM12.7,21.6c-.141-.1-.3-.19-.453-.282.341.117.687.229,1.032.321.175.044.355.073.536.112.117.024.258.122.375.083.156.307.307.618.458.93a2.789,2.789,0,0,0-.492-.073c-.1-.019-.195-.044-.287-.068a.107.107,0,0,0-.024-.136C13.466,22.171,13.086,21.879,12.7,21.6Zm.662.828a1.648,1.648,0,0,0-.219,0c-.273-.243-.536-.5-.8-.74l.117.073A9.769,9.769,0,0,1,13.359,22.429Zm.911-.687a.66.66,0,0,0,.054-.3c.054.161.112.317.17.477a8.644,8.644,0,0,0,.467,1.037l.015.044c-.195-.341-.39-.677-.575-1.023C14.357,21.9,14.313,21.826,14.27,21.743Zm1.13-.034c-.151-.161-.273-.355-.409-.521a3.422,3.422,0,0,0-.253-.278c-.015-.049-.029-.093-.049-.141-.078-.224-.151-.453-.224-.677a.657.657,0,0,0,0-.351c-.058-.239-.19-.463-.268-.7-.024-.068-.049-.141-.068-.209.068.093.141.18.214.273a8.988,8.988,0,0,1,.579.949c.127.219.219.458.331.682a1.541,1.541,0,0,0,.166.3C15.4,21.261,15.4,21.485,15.4,21.709Zm-2.215-3.73a2.042,2.042,0,0,0,.19-.37c.214.769.458,1.534.706,2.293,0,0-.015,0-.019-.01a.112.112,0,0,0-.141.131q.117.5.263.979c0,.068-.01.131-.015.2s-.029.18-.034.278c-.18-.346-.36-.7-.545-1.042-.015-.175-.068-.351-.093-.521-.039-.263-.049-.526-.093-.789a4.121,4.121,0,0,0-.175-.682,3.579,3.579,0,0,1-.136-.4A.147.147,0,0,0,13.184,17.979Zm-1.018-1.724a.137.137,0,0,0,.234,0c.058-.1.093-.2.141-.307a6.58,6.58,0,0,1,.18.954,3.493,3.493,0,0,0,.214,1.071.106.106,0,0,0,.024.039,1.043,1.043,0,0,0,.034.209c.054.234.122.458.17.7.063.287.088.579.131.872l.015.117c-.229-.424-.472-.833-.726-1.242-.015-.054-.024-.112-.034-.146-.044-.156-.078-.316-.117-.472-.068-.3-.117-.609-.185-.911-.083-.38-.151-.76-.219-1.139A1.179,1.179,0,0,0,12.166,16.255Zm-.37-1.324a6.518,6.518,0,0,1-.18-.672A2.79,2.79,0,0,1,11.8,14.931Zm-1.251-2.094c.224.521.312,1.091.555,1.6a.114.114,0,0,0,.195,0,.967.967,0,0,0,.136-.487.939.939,0,0,1,.063.083,9.122,9.122,0,0,0,.3,1.441c.112.575.18,1.154.316,1.729.083.351.156.706.243,1.052,0,.019.01.044.015.068-.287-.448-.584-.891-.886-1.329a7.019,7.019,0,0,1-.229-.969c-.17-.584-.326-1.169-.477-1.758-.136-.531-.263-1.061-.4-1.6a3.89,3.89,0,0,0-.2-.623A7.17,7.17,0,0,1,10.545,12.837ZM8.972,10.583a7.233,7.233,0,0,1,.7,1.451.1.1,0,0,0,.185-.044,1.7,1.7,0,0,1,.029-.316l.019.019a3.222,3.222,0,0,1,.36,1.135c.112.555.253,1.1.39,1.651.068.282.136.565.229.842.1.3.229.594.3.906.029.112.039.273.063.428-.054-.078-.107-.156-.161-.229-.477-.7-.94-1.4-1.407-2.1,0-.02,0-.044,0-.063s-.015-.024-.024-.029c-.209-.721-.351-1.456-.54-2.181-.117-.438-.234-.881-.355-1.32-.058-.2-.117-.424-.185-.633C8.69,10.271,8.84,10.422,8.972,10.583ZM7.628,9.132c.2.243.263.575.521.774a.1.1,0,0,0,.088.015A.1.1,0,0,0,8.354,10c.063.258.146.516.214.769.122.438.234.881.355,1.32.151.55.234,1.154.4,1.709-.229-.336-.463-.672-.7-1-.156-.214-.312-.428-.467-.648a.108.108,0,0,0,.054-.024.052.052,0,0,0,.01-.063c-.024-.063-.073-.117-.107-.185a2.7,2.7,0,0,1-.161-.472c-.083-.316-.151-.638-.224-.959A11.264,11.264,0,0,0,7.4,9.1c-.029-.078-.063-.224-.117-.365C7.4,8.874,7.521,9,7.628,9.132ZM6.07,7.875c.3.287.521.648.842.92a.1.1,0,0,0,.175-.063V8.659a8.586,8.586,0,0,1,.506,1.9c.068.312.136.628.224.935.029.1.054.214.088.321-.321-.443-.648-.886-.974-1.324a1.442,1.442,0,0,0-.1-.341c-.078-.214-.156-.424-.239-.633-.136-.351-.3-.7-.438-1.047-.093-.248-.18-.56-.312-.833C5.919,7.715,5.992,7.8,6.07,7.875ZM4.648,7.34c-.019-.063-.044-.127-.063-.19A2.083,2.083,0,0,0,5.6,7.812c.058.01.112-.019.112-.078.127.278.224.565.331.852.127.336.287.657.419.993.068.175.136.351.2.526C6.44,9.813,6.221,9.521,6,9.234,5.525,8.62,5.081,7.982,4.648,7.34ZM5.242,9.4a.1.1,0,0,0,.1-.093c.058-.487-.3-.891-.472-1.315-.024-.054-.044-.112-.063-.166.54.862,1.208,1.656,1.811,2.454.214.282.428.57.638.857-.039-.019-.078-.034-.117-.054-.136-.068-.268-.146-.4-.224a7.623,7.623,0,0,1-.755-.545c-.385-.307-.74-.643-1.105-.974A2.477,2.477,0,0,0,5.242,9.4Zm.687,1.7a.112.112,0,0,0,.083-.136,2.035,2.035,0,0,0-.662-.833c-.258-.248-.438-.555-.677-.818.019,0,.039,0,.058,0a11.53,11.53,0,0,0,1.1,1.081,7.644,7.644,0,0,0,.813.6,1.891,1.891,0,0,0,.774.365c.239.331.477.662.711.993-.36-.166-.75-.268-1.11-.419a4.721,4.721,0,0,1-.73-.419,6.268,6.268,0,0,0-.589-.385C5.778,11.133,5.856,11.123,5.929,11.108ZM6.046,12.3a1.421,1.421,0,0,0,.248-.019.116.116,0,0,0,.034-.209c-.19-.151-.385-.287-.575-.433a1.757,1.757,0,0,1-.463-.448l.151-.015c.1.063.209.151.253.18.219.141.433.292.643.443a11.437,11.437,0,0,0,1.928.867.085.085,0,0,0,.058,0c.312.448.618.906.911,1.363.263.409.516.823.779,1.227-.019,0-.044-.015-.063-.019-.141-.054-.278-.112-.414-.17-.214-.1-.419-.2-.633-.3a7.8,7.8,0,0,1-.7-.346l-.054-.039a.131.131,0,0,0-.024-.131A16.121,16.121,0,0,0,6.046,12.3Zm2.741,3.744a1.917,1.917,0,0,0,.375-.019.128.128,0,0,0,.063-.209,5.486,5.486,0,0,0-.833-.74c-.219-.185-.419-.39-.633-.57a2.186,2.186,0,0,0,.248-.039c.024.015.049.029.068.044a5.706,5.706,0,0,0,.76.409c.239.117.472.243.716.355a1.347,1.347,0,0,0,.589.161c.1.156.2.312.312.463.239.341.482.677.721,1.013-.044-.019-.093-.034-.136-.054-.258-.093-.521-.156-.774-.258a9.561,9.561,0,0,0-1.7-.56C8.646,16.031,8.733,16.041,8.787,16.041Zm.5,1.363c.219.01.443.073.652.068a.129.129,0,0,0,.1-.214,7.862,7.862,0,0,0-1.276-1.027c.428.166.857.326,1.276.511a6.405,6.405,0,0,0,.721.268,3.284,3.284,0,0,0,.609.156c.131.185.263.37.394.56.112.161.224.321.336.487a3.677,3.677,0,0,0-.594-.122c-.312-.049-.6-.175-.9-.253-.258-.068-.521-.122-.779-.2a2.271,2.271,0,0,1-.394-.151C9.371,17.458,9.332,17.429,9.288,17.4ZM10,18.1c-.17-.146-.37-.278-.55-.424q.073.029.131.058a6.058,6.058,0,0,0,.828.263c.278.078.545.2.823.263.321.073.662.107.988.161h.015c.248.365.487.735.721,1.115.073.122.146.243.214.365a1.149,1.149,0,0,0-.278-.088c-.229-.054-.463-.073-.691-.131a8.993,8.993,0,0,1-1.539-.536c.1.01.195.024.243.024a.144.144,0,0,0,.107-.239A9.2,9.2,0,0,0,10,18.1Zm2.269,3.019c.1.019.229-.083.156-.19-.54-.779-1.427-1.144-2.1-1.772a7.938,7.938,0,0,0,1.573.652,4.183,4.183,0,0,0,.648.156c.234.039.453.117.682.166a.084.084,0,0,0,.058-.01c.019.034.039.073.058.107a1.307,1.307,0,0,0,.131.424.057.057,0,0,0,.1,0c.136.258.268.516.4.769.039.078.078.156.122.234a2.737,2.737,0,0,0-.7-.161c-.477-.1-.935-.278-1.407-.4A1.143,1.143,0,0,1,12.268,21.115Zm0,.852c.234.209.472.419.711.628a.122.122,0,0,0,.034.058,3.776,3.776,0,0,0,.925.662.272.272,0,0,0,.039.024c-.127-.054-.248-.112-.375-.166-.336-.141-.662-.3-.993-.453a.058.058,0,0,0-.019-.1.586.586,0,0,0-.278-.044c-.058-.029-.117-.054-.175-.083h0c-.083-.131-.156-.268-.229-.4a2.914,2.914,0,0,1-.307-.716C11.816,21.567,12.04,21.767,12.263,21.967ZM10.17,20.1c.224.209.453.409.682.614.209.185.414.37.623.555a.078.078,0,0,0-.044.083,4.978,4.978,0,0,0,.385,1c-.083-.039-.166-.073-.253-.112l-.229-.1c-.044-.078-.093-.151-.122-.2-.136-.253-.287-.492-.428-.745-.17-.3-.341-.589-.531-.872-.078-.122-.161-.248-.248-.37C10.063,20,10.116,20.053,10.17,20.1Zm-1.621-.842a7.89,7.89,0,0,0,1.081.847.136.136,0,0,0,.195-.078c.083.131.175.258.258.38.185.282.365.575.536.867.131.229.273.448.4.672.015.024.029.049.044.078-.487-.209-.979-.414-1.47-.623a.046.046,0,0,0,.019-.049.553.553,0,0,0-.117-.2,2.693,2.693,0,0,1-.248-.409c-.127-.234-.239-.472-.37-.7a9.485,9.485,0,0,0-.706-1.091C8.319,19.06,8.446,19.177,8.548,19.259Zm-.633.078a.131.131,0,0,0,.166-.156,1.085,1.085,0,0,0-.229-.39.775.775,0,0,1,.1.034,9.723,9.723,0,0,1,.842,1.358c.127.229.229.472.351.7a1.665,1.665,0,0,0,.282.443l-1.519-.643v-.034c-.054-.141-.141-.273-.2-.414s-.112-.3-.18-.443c-.161-.331-.424-.609-.6-.935A5.593,5.593,0,0,0,7.915,19.337ZM4.57,17.891a2.622,2.622,0,0,0,.847.516c.073.229.195.448.253.677a1.3,1.3,0,0,0,.365.764.082.082,0,0,0,.088,0,.089.089,0,0,0,.039-.122,2.928,2.928,0,0,1-.263-.506c-.054-.161-.1-.326-.161-.482-.044-.107-.1-.2-.156-.307a.79.79,0,0,0,.107,0c.088-.01.117-.122.083-.19l-.044-.073c.38.195.745.433,1.115.648a.037.037,0,0,0-.01.049c.161.38.414.711.579,1.091a3.015,3.015,0,0,0,.253.633c-.068-.029-.136-.058-.209-.088-.876-.375-1.719-.779-2.547-1.222a.075.075,0,0,0,.029-.093,9.012,9.012,0,0,0-.779-1.6C4.293,17.687,4.434,17.789,4.57,17.891ZM3.5,17.229c-.034-.049-.083-.093-.122-.141a2.173,2.173,0,0,1,.6.365l.058.044c.088.614.6,1.076.7,1.69-.37-.2-.74-.414-1.1-.633a.27.27,0,0,1-.039-.024,3.956,3.956,0,0,0-.37-.984.8.8,0,0,0,.19.068.124.124,0,0,0,.156-.112A.354.354,0,0,0,3.5,17.229ZM1.99,17.063a.11.11,0,0,0,.161-.151c-.054-.068-.112-.136-.161-.209a5.925,5.925,0,0,1,.672.414c.146.1.273.229.419.331.049.151.1.3.156.448.058.166.107.336.166.506-.083-.054-.166-.1-.248-.156a.041.041,0,0,0-.039-.034H3.095a6.28,6.28,0,0,1-1.13-.891,9.97,9.97,0,0,1-.915-1.159C1.366,16.455,1.668,16.776,1.99,17.063ZM.767,16.348c-.107-.219-.2-.448-.312-.662.058.039.112.078.166.122a3.187,3.187,0,0,1,.346.492,7.152,7.152,0,0,0,.516.7,6.574,6.574,0,0,0,1.251,1.188,3.938,3.938,0,0,1-.779-.253,6.321,6.321,0,0,0-.789-.321H1.2a.1.1,0,0,0,.1-.122A3.8,3.8,0,0,0,.767,16.348Zm.6,1.85c-.253-.175-.516-.336-.76-.526a3.859,3.859,0,0,1,1.47.472,1.885,1.885,0,0,0,.915.219c.175.122.351.243.531.36a.05.05,0,0,0,.034.024c.2.136.414.268.618.394-.073.01-.141.019-.209.024A2.389,2.389,0,0,1,3,19.074a7.05,7.05,0,0,0-.949-.214c-.029,0-.054,0-.083-.01a.172.172,0,0,0-.029-.161A1.807,1.807,0,0,0,1.366,18.2Zm2.469,1.918c-.156-.331-.677-.453-.988-.565-.214-.078-.419-.175-.628-.258s-.409-.161-.6-.258h.01a2.809,2.809,0,0,1,.492.019,7.391,7.391,0,0,1,.954.239,2.064,2.064,0,0,0,.789.088,5.7,5.7,0,0,1,.643-.044,23.04,23.04,0,0,0,2.06,1.086l.156.073a6.264,6.264,0,0,0-1.383.029,6.091,6.091,0,0,1-1.709-.141c.054-.024.107-.054.161-.078A.152.152,0,0,0,3.835,20.116Zm1.972,1.324c-.112,0-.224,0-.331-.01s-.214-.039-.321-.063c.141-.039.3-.049.428-.083.107-.029.156-.2.039-.253a5.309,5.309,0,0,0-1.013-.317,5.214,5.214,0,0,0,.55.01,7.551,7.551,0,0,1,1.9-.01.076.076,0,0,0,.088-.034c.628.282,1.266.555,1.9.828-.243,0-.5.024-.711.034a10.491,10.491,0,0,1-1.563-.063C6.45,21.46,6.133,21.446,5.807,21.441Zm1.11.282a8.268,8.268,0,0,0,1.1.063c.273-.01.545-.039.818-.054s.536.044.8.034h0l.906.38.107.044c-.112.01-.224.019-.336.024-.234,0-.467-.01-.7-.015-.273,0-.545,0-.818,0a7.645,7.645,0,0,0-.818.019.123.123,0,0,0-.054-.146A5.889,5.889,0,0,0,6.917,21.723Zm.886.648c.112,0,.229.01.3.01.292-.01.584,0,.872.01s.575,0,.862,0a2.545,2.545,0,0,0,1.1-.078c.122.054.243.1.36.156a.187.187,0,0,0,.054.054.044.044,0,0,0,.058,0c.107.049.219.093.326.141-.151.029-.307.068-.463.088-.38.054-.769.117-1.159.146a.153.153,0,0,0-.088-.1A8.534,8.534,0,0,0,7.8,22.371ZM10.209,23.6a5.419,5.419,0,0,1,.555.39c.117.093.263.234.414.346-.107,0-.214,0-.316,0-.375.01-.75.024-1.125.034-.195-.161-.424-.292-.633-.433-.258-.17-.526-.336-.789-.5l-.044-.073A15.243,15.243,0,0,1,10.209,23.6Zm-3.886.058a9.954,9.954,0,0,0,2.04.287.162.162,0,0,0,.141-.239c-.01-.01-.015-.024-.024-.034.161.1.326.2.487.312.19.122.37.263.56.39-.127,0-.248,0-.375,0a11.625,11.625,0,0,1-1.592-.122c-.17-.024-.341-.044-.511-.063-.034-.019-.068-.034-.1-.054-.175-.1-.355-.19-.536-.278L5.9,23.6a.487.487,0,0,1-.068-.039A4.614,4.614,0,0,1,6.323,23.656Zm-.628.209A.139.139,0,0,0,5.8,23.72c.146.093.3.175.448.258l.292.161c-.224-.024-.443-.044-.667-.063-.282-.024-.56-.073-.842-.1C5.257,23.939,5.476,23.9,5.695,23.866Zm-.949.346c.312.01.614.044.935.083.443.054.886.083,1.329.131a4.773,4.773,0,0,0-.648.127,5.293,5.293,0,0,0-.526.146.115.115,0,0,0-.063-.131A5.693,5.693,0,0,0,4.745,24.211Zm.7.9c.054-.039.1-.083.151-.122a5.3,5.3,0,0,1,.813-.224c.2-.044.409-.068.614-.093a1.5,1.5,0,0,0,.487-.083.05.05,0,0,0,0-.088c-.01,0-.015-.01-.024-.01.326.044.652.083.984.112a5.2,5.2,0,0,0-.662.351c-.258.151-.5.321-.745.5A.147.147,0,0,0,7,25.356,2.466,2.466,0,0,0,5.447,25.107Zm2.9.618a6.418,6.418,0,0,0-1.694.229,2.082,2.082,0,0,0,.268-.239c.3-.19.6-.385.915-.565a6.042,6.042,0,0,1,.638-.326c.17-.078.37-.117.54-.2.044,0,.088,0,.131,0,.424,0,.847,0,1.271,0-.029.015-.058.034-.088.049-.248.136-.492.278-.735.419A11.98,11.98,0,0,1,8.344,25.726Zm1.427.55c-.326.01-.657.019-.984.024a1.9,1.9,0,0,0,.185-.161.147.147,0,0,0-.024-.229,1.474,1.474,0,0,0-.3-.127c.331-.136.652-.3.974-.467.248-.131.5-.273.74-.414.151-.088.321-.175.472-.282h.029c.331,0,.662.01.988.024a4.733,4.733,0,0,0-.833.633A9.414,9.414,0,0,0,9.77,26.276Zm.282,0c.107-.093.219-.18.331-.263.224-.166.453-.321.672-.5a5.282,5.282,0,0,1,1.271-.852h.316a7.96,7.96,0,0,0,1.071-.1,3.473,3.473,0,0,0-1.383.935c-.214.2-.419.419-.633.623-.136.127-.282.239-.424.355a.135.135,0,0,0-.122-.195C10.788,26.256,10.423,26.261,10.053,26.271Zm3.457-.394a9.306,9.306,0,0,1-1.646.755c-.36.112-.735.273-1.115.351.088-.083.175-.161.258-.239a.084.084,0,0,0,.112.058,4.615,4.615,0,0,0,1.276-1.047A6.358,6.358,0,0,1,13.783,24.7a.081.081,0,0,0-.029-.151c.127-.019.253-.049.38-.078-.024.083-.044.161-.063.224a3.578,3.578,0,0,0-.18.988C13.758,25.75,13.632,25.808,13.51,25.877Zm.54-.263c.093-.229.127-.5.195-.721a3.555,3.555,0,0,1,.18-.5,3.894,3.894,0,0,0,.945-.414c.039.01.073.024.112.034,0,.01,0,.019.01.029a3.464,3.464,0,0,1-.536,1A3.4,3.4,0,0,1,14.05,25.614Zm1.967,1.66a9.945,9.945,0,0,1-.487,2.474,10.662,10.662,0,0,0-.682,2.2,3.673,3.673,0,0,0,.355,1.933,9.7,9.7,0,0,0-1.665.375c0-.019-.015-.034-.019-.054a1.421,1.421,0,0,1-.039-.477,8.36,8.36,0,0,1,.054-1.159,10.266,10.266,0,0,1,.891-2.508,10.368,10.368,0,0,0,.716-2.5c.068-.414.166-.828.219-1.247a2.239,2.239,0,0,0-.015-.6c-.024-.151-.083-.292-.107-.443,0,0,.015,0,.019-.01a.574.574,0,0,0-.019-.1,1.534,1.534,0,0,0,.243-.38c.054-.112.093-.234.136-.351a2.525,2.525,0,0,0,.312.419.163.163,0,0,0-.068.136C15.837,25.76,16.066,26.5,16.018,27.274Zm3.535-.818a9.364,9.364,0,0,1-1.115-.477,2.851,2.851,0,0,0-.906-.463.1.1,0,0,0-.1.122.734.734,0,0,1,.029.18,1.5,1.5,0,0,1-.375-.214,5.364,5.364,0,0,1-.628-.526,4.007,4.007,0,0,1-.74-.847,2.879,2.879,0,0,1,1.135.443,4.292,4.292,0,0,0,1.232.467c.326.073.657.151.984.219.122.243.307.467.443.7.088.151.17.312.253.467C19.694,26.51,19.626,26.48,19.553,26.456Zm2.771-.146c-.068-.015-.161.039-.136.127a1.04,1.04,0,0,1,.039.214,8.662,8.662,0,0,0-1.987-.341.1.1,0,0,0-.078.17c.034.044.073.088.107.131a.211.211,0,0,1,.019.034.764.764,0,0,1-.239-.034.4.4,0,0,1-.073-.019,2.8,2.8,0,0,0-.3-.618,5.613,5.613,0,0,0-.37-.565,11.126,11.126,0,0,0,1.646.219.369.369,0,0,1,.073,0,2.483,2.483,0,0,0,.234.536c.063.112.185.336.341.3a.071.071,0,0,0,.054-.083c-.01-.068-.063-.1-.107-.151A1.128,1.128,0,0,1,21.379,26c-.073-.117-.131-.248-.214-.36.424.019.837.029,1.261.088l.2.029c.122.2.243.4.36.6.044.078.078.161.117.248A4.556,4.556,0,0,0,22.323,26.31Zm1.6.122a.241.241,0,0,0-.063.127c-.034.146-.127.175-.278.175a.775.775,0,0,1-.209-.029,3.055,3.055,0,0,0-.234-.414,4.329,4.329,0,0,0-.341-.5c.355.054.716.1,1.076.122.054,0,.107,0,.161.01a2.251,2.251,0,0,0,.273.448A.439.439,0,0,0,23.92,26.432Zm2.624-.117a.032.032,0,0,0,.034-.024c.239.1.482.195.721.287a5.218,5.218,0,0,1-1.125-.185,2.746,2.746,0,0,0-.721.039,3.1,3.1,0,0,1-.823,0c-.112-.175-.278-.331-.4-.5a10.237,10.237,0,0,1,1.081.136A4.935,4.935,0,0,0,26.545,26.315Zm-3.335-1.821c-.044.063-.088.127-.127.19a.134.134,0,0,0,.112.2c.414.049.837-.029,1.247.039a1.621,1.621,0,0,0-.307.273.134.134,0,0,0,.044.185,4.126,4.126,0,0,0,1.31.511c-.073-.019-.151-.034-.229-.049a12.058,12.058,0,0,0-1.383-.17,14.3,14.3,0,0,1-1.446-.185,13.579,13.579,0,0,0-1.47-.107c-.3-.015-.6-.049-.906-.093a.017.017,0,0,0,.01,0,10.027,10.027,0,0,0,1.2-.3,3.867,3.867,0,0,0,.911-.336.139.139,0,0,0,.058.019A6.959,6.959,0,0,0,23.209,24.494Zm-1-.156c-.024.039-.049.073-.073.107-.341.083-.672.224-1.008.321a9.636,9.636,0,0,0-1.164.336c-.1.044-.054.141.015.18-.38-.058-.76-.136-1.135-.219a7.233,7.233,0,0,0,1.363-.161.118.118,0,0,0,.034-.214.37.37,0,0,0-.093-.058c.229-.029.467-.044.7-.063a.142.142,0,0,0,.166.073C21.413,24.543,21.807,24.411,22.206,24.338Zm.312-.672a3.053,3.053,0,0,0-1.169.122.148.148,0,0,0-.093.1,4.7,4.7,0,0,1-.506-.161c-.224-.083-.458-.141-.687-.214s-.443-.2-.667-.287l.4-.175c.414-.17.837-.321,1.256-.477a6.871,6.871,0,0,0,1.217.516c.346.127.7.282,1.061.394a.148.148,0,0,0,.015.166Q22.927,23.666,22.518,23.666Zm3.905-.8a1.4,1.4,0,0,1-.39.1c-.209.039-.419.068-.628.1-.555.1-1.105.214-1.66.307a11.113,11.113,0,0,0-1.242-.453c-.224-.083-.448-.161-.667-.239-.175-.063-.351-.141-.531-.2.175-.068.351-.136.526-.214.487-.209.935-.5,1.4-.745a.076.076,0,0,0,.029.058c.19.131.414.219.614.336s.428.239.652.341.467.156.691.243c.18.068.355.156.54.219a.12.12,0,0,0,.088.1A5.721,5.721,0,0,0,26.423,22.863Zm1.441-1.052c-.662.229-1.324.448-1.967.735-.433-.175-.876-.321-1.3-.5a6.451,6.451,0,0,0-1.242-.594c.122-.063.248-.122.375-.175.4-.17.784-.36,1.169-.56a4,4,0,0,0,1.3.565A7.812,7.812,0,0,0,27,21.46c.127.029.248.093.37.131-.078.088.029.209.131.195A1.107,1.107,0,0,1,27.864,21.811Zm.687-.774a4.369,4.369,0,0,0-.984.409,3.684,3.684,0,0,0-.506-.18c-.243-.073-.5-.083-.74-.161q-.336-.11-.672-.234c-.195-.073-.38-.17-.575-.243.18-.1.365-.19.55-.287.3-.151.6-.3.9-.433a4.639,4.639,0,0,0,1.261.424c.263.078.521.18.784.258.2.058.506.175.7.073,0,0,.01,0,.015-.01a1.3,1.3,0,0,1,.273-.015A3.008,3.008,0,0,1,28.551,21.037Zm1.227-.949a3.618,3.618,0,0,0-.755.37c-.01,0-.015.015-.019.02-.127-.024-.263-.034-.375-.068-.239-.068-.467-.166-.7-.248s-.467-.136-.7-.2c-.161-.044-.316-.1-.477-.156.3-.131.594-.258.9-.375.195-.078.394-.141.594-.209.428.5,1.29.511,1.889.623a.1.1,0,0,0,.112-.112,1.153,1.153,0,0,1,.175-.044A1.51,1.51,0,0,1,29.778,20.087Zm2.717-2.941c-.258.307-.511.609-.8.891A21.4,21.4,0,0,1,30,19.6a.071.071,0,0,0-.029.044,4.076,4.076,0,0,1-1.607-.458c.088-.029.17-.063.258-.1.341-.141.672-.312,1-.472.638-.307,1.276-.614,1.918-.915a4.27,4.27,0,0,0,.73-.438c.107-.083.2-.18.312-.253l.068-.029C32.6,17.034,32.544,17.088,32.495,17.146Z" transform="translate(0)" fill="#737373"/>
</svg>
