<svg id="noun_Location_3376623" xmlns="http://www.w3.org/2000/svg" width="17.506" height="23.107" viewBox="0 0 17.506 23.107">
  <g id="Group_35" data-name="Group 35">
    <path id="Path_128" data-name="Path 128" d="M37.267,33.456l.049-.086c3.058.549,5.19,1.783,5.19,3.216,0,1.923-3.835,3.486-8.6,3.52H33.6c-4.762-.033-8.6-1.6-8.6-3.52,0-1.434,2.132-2.668,5.19-3.216q.268.476.562.974c-2.781.435-4.7,1.413-4.7,2.242,0,1.09,3.32,2.438,7.551,2.47h.3c4.231-.032,7.551-1.38,7.551-2.47,0-.829-1.92-1.807-4.7-2.242q.267-.453.513-.889l.049-.086ZM33.753,17a6.081,6.081,0,0,1,6.3,6.3c0,2.608-1.816,6.544-5.428,11.961l-.874,1.311-.874-1.311c-3.612-5.418-5.428-9.353-5.428-11.961A6.081,6.081,0,0,1,33.753,17Zm0,1.05A5.045,5.045,0,0,0,28.5,23.3q0,3.405,4.968,10.95l.284.428.284-.428Q39,26.707,39,23.3A5.045,5.045,0,0,0,33.753,18.05Zm0,2.8A2.451,2.451,0,1,1,31.3,23.3,2.451,2.451,0,0,1,33.753,20.851Zm0,1.05a1.4,1.4,0,1,0,1.4,1.4A1.4,1.4,0,0,0,33.753,21.9Z" transform="translate(-25 -17)" fill="#47971d"/>
  </g>
</svg>
