<svg xmlns="http://www.w3.org/2000/svg" width="28.15" height="30.001" viewBox="0 0 28.15 30.001">
  <g id="box" transform="translate(-15.782 0.254)">
    <g id="Group_11706" data-name="Group 11706" transform="translate(16.032 -0.001)">
      <g id="Group_11705" data-name="Group 11705" transform="translate(0 0)">
        <path id="Path_2165" data-name="Path 2165" d="M43.438,6.508,30.045.042a.432.432,0,0,0-.376,0L16.276,6.508a.432.432,0,0,0-.244.389V22.6a.432.432,0,0,0,.244.389l13.393,6.466a.432.432,0,0,0,.376,0l13.393-6.466a.432.432,0,0,0,.244-.389V6.9A.432.432,0,0,0,43.438,6.508ZM29.857.911,42.256,6.9,38.662,8.632a.428.428,0,0,0-.073-.046L26.274,2.641ZM25.3,3.13,37.679,9.107l-2.536,1.224L22.767,4.356Zm12.671,6.8v4.525L35.6,15.6V11.07Zm4.849,12.4L30.289,28.376V13.634l2.988-1.443a.432.432,0,0,0-.376-.778l-3.045,1.47-1.2-.578a.432.432,0,1,0-.376.778l1.142.551V28.376L16.9,22.328V7.585l9.54,4.606a.432.432,0,0,0,.376-.778L17.458,6.9,21.75,4.825l12.98,6.266.006.008v5.185a.432.432,0,0,0,.62.389l3.233-1.561a.432.432,0,0,0,.244-.389V9.509l3.985-1.924V22.328Z" transform="translate(-16.032 0.001)" fill="#737373" stroke="#737373" stroke-width="0.5"/>
      </g>
    </g>
    <g id="Group_11708" data-name="Group 11708" transform="translate(17.877 19.66)">
      <g id="Group_11707" data-name="Group 11707">
        <path id="Path_2166" data-name="Path 2166" d="M50.634,342.253l-1.965-.949a.432.432,0,1,0-.376.778l1.965.949a.432.432,0,0,0,.376-.778Z" transform="translate(-48.048 -341.261)" fill="#737373" stroke="#737373" stroke-width="0.5"/>
      </g>
    </g>
    <g id="Group_11710" data-name="Group 11710" transform="translate(17.879 17.611)">
      <g id="Group_11709" data-name="Group 11709" transform="translate(0)">
        <path id="Path_2167" data-name="Path 2167" d="M52.487,307.554l-3.772-1.821a.432.432,0,1,0-.376.778l3.772,1.821a.432.432,0,0,0,.376-.778Z" transform="translate(-48.096 -305.69)" fill="#737373" stroke="#737373" stroke-width="0.5"/>
      </g>
    </g>
  </g>
</svg>
