<svg xmlns="http://www.w3.org/2000/svg" width="19.245" height="19.305" viewBox="0 0 19.245 19.305">
  <g id="noun_Phone_2031954" transform="translate(0.255 0.225)">
    <g id="Group_36" data-name="Group 36">
      <path id="Path_129" data-name="Path 129" d="M45,51.684c-3.245-1.2-9.806-7.76-11-11a7.584,7.584,0,0,1-.071-4.515,5.312,5.312,0,0,1,1.622-2.61c1.27-.705,2.328.141,3.245,1.058,1.2,1.129,2.257,3.033.776,4.444-.564.635-1.27,1.27-.705,2.116a27.42,27.42,0,0,0,5.714,5.714c.847.564,1.481-.141,2.046-.776,1.411-1.411,3.316-.423,4.515.776.847.917,1.693,1.975.988,3.245a4.611,4.611,0,0,1-2.61,1.622A6.622,6.622,0,0,1,45,51.684Zm.282-.635c2.892,1.058,5.785-.494,6.278-1.27.423-.776.071-1.411-.917-2.4s-2.469-1.9-3.527-.776c-1.058,1.058-1.9,1.481-2.963.847A29.134,29.134,0,0,1,38.3,41.525c-.705-1.058-.282-1.834.776-2.963,1.129-1.058.212-2.54-.776-3.527-.988-.917-1.622-1.34-2.4-.847-.776.423-2.328,3.316-1.27,6.278C35.761,43.5,42.181,49.92,45.284,51.049Z" transform="translate(-33.618 -33.292)" fill="#47971d" stroke="#47971d" stroke-width="0.5" fill-rule="evenodd"/>
    </g>
  </g>
</svg>
