<svg width="26" height="26" viewBox="0 0 26 26" fill="none" xmlns="http://www.w3.org/2000/svg">
<path d="M0.858442 9.09823C0.61642 9.01907 0.350431 9.08734 0.176511 9.27324C0.00259203 9.45913 -0.0477062 9.72895 0.0475593 9.96497C1.43083 13.0462 3.86781 16.4655 6.8425 18.6714C5.04661 18.8467 3.29709 19.3444 1.678 20.1405C1.44744 20.2759 1.30587 20.5233 1.30587 20.7905C1.30587 21.0578 1.44744 21.3051 1.678 21.4406C3.80717 22.5191 6.1795 23.0282 8.564 22.9184C8.20679 23.6509 7.94868 24.4277 7.79648 25.2282C7.75825 25.4581 7.84359 25.6912 8.02127 25.8421C8.19894 25.9931 8.44286 26.0397 8.66373 25.965C10.2257 25.5219 11.5975 24.5759 12.5664 23.2737V25.5663C12.5664 25.8056 12.7605 25.9996 13 25.9996C13.2395 25.9996 13.4336 25.8056 13.4336 25.5663V23.2737C14.4052 24.573 15.776 25.5184 17.3363 25.965C17.5571 26.0397 17.8011 25.9931 17.9787 25.8421C18.1564 25.6912 18.2418 25.4581 18.2035 25.2282C18.054 24.4342 17.8003 23.6634 17.449 22.9357C19.8334 23.0444 22.2054 22.5353 24.335 21.4579C24.5656 21.3225 24.7071 21.0752 24.7071 20.8079C24.7071 20.5406 24.5656 20.2933 24.335 20.1578C22.713 19.3542 20.9589 18.8506 19.1575 18.6714C22.1062 16.5132 24.5432 13.1112 25.9524 9.96497C26.0477 9.72895 25.9974 9.45913 25.8235 9.27324C25.6496 9.08734 25.3836 9.01907 25.1416 9.09823C21.9197 10.134 18.2469 12.1925 15.7535 14.8924C16.5341 10.1253 15.4587 4.65186 13.5854 0.391838C13.4837 0.154161 13.25 0 12.9913 0C12.7327 0 12.499 0.154161 12.3973 0.391838C10.5543 4.56952 9.42691 10.0646 10.2291 14.8924C7.79648 12.2272 4.13233 10.1513 0.858442 9.09823ZM2.31109 20.7992C5.45489 19.3474 9.47895 18.8057 12.3105 20.7992C9.48328 22.8057 5.42887 22.238 2.31109 20.7992ZM8.73745 25.0289C8.91143 24.2466 9.20388 23.4954 9.6047 22.8014C10.5643 22.6327 11.4863 22.2952 12.3279 21.8046C11.7945 23.3994 10.3202 24.4438 8.73745 25.0289ZM17.2626 25.0289C15.6842 24.4482 14.2272 23.4038 13.6504 21.8046C14.4917 22.2959 15.4138 22.6335 16.3736 22.8014C16.782 23.4942 17.0818 24.2454 17.2626 25.0289ZM13.6895 20.7992C16.5167 18.7927 20.5711 19.3604 23.6889 20.7992C20.5451 22.251 16.5211 22.7927 13.6895 20.7992ZM24.9638 10.0776C23.3507 13.3799 20.8053 16.7039 17.6441 18.6324C16.5061 18.6813 15.3877 18.9461 14.3486 19.4124C14.7751 18.5476 15.1164 17.6434 15.3676 16.7125C17.6528 13.6226 21.4037 11.3301 24.9464 10.0776H24.9638ZM13 1.20657C15.3719 6.93138 16.3649 14.8014 13 20.0495C9.63505 14.797 10.6324 6.93138 13 1.20657ZM11.6514 19.4298C10.6123 18.9634 9.49391 18.6987 8.35585 18.6497C5.19471 16.7039 2.64499 13.3713 1.05357 10.0776C4.60498 11.3344 8.35152 13.6269 10.6324 16.7299C10.8836 17.6608 11.2249 18.565 11.6514 19.4298Z" fill="white"/>
</svg>
