<svg width="135" height="134" viewBox="0 0 135 134" fill="none" xmlns="http://www.w3.org/2000/svg">
<g filter="url(#filter0_d)">
<path d="M55.1933 22.8068C54.8487 21.5208 55.611 20.1927 56.9126 19.9128C65.115 18.1491 73.6508 18.5537 81.6719 21.107C90.4599 23.9045 98.2612 29.1639 104.15 36.2614C110.04 43.3588 113.769 51.9965 114.898 61.1498C116.026 70.3031 114.505 79.588 110.516 87.9031C106.526 96.2181 100.236 103.214 92.3898 108.062C84.544 112.91 75.4725 115.406 66.2512 115.253C57.0298 115.101 48.0457 112.307 40.3644 107.203C33.3535 102.544 27.6965 96.139 23.9396 88.6373C23.3434 87.4469 23.9023 86.0213 25.121 85.4853C26.3397 84.9494 27.7561 85.5065 28.3589 86.6936C31.7401 93.3524 36.7901 99.0389 43.0327 103.187C49.9459 107.781 58.0316 110.296 66.3308 110.433C74.63 110.57 82.7944 108.324 89.8556 103.961C96.9167 99.5978 102.578 93.3011 106.169 85.8175C109.759 78.334 111.128 69.9776 110.113 61.7396C109.097 53.5016 105.74 45.7277 100.44 39.34C95.1399 32.9523 88.1187 28.2189 80.2094 25.7011C73.0673 23.4276 65.4717 23.0469 58.1619 24.5763C56.8588 24.849 55.5379 24.0928 55.1933 22.8068Z" fill="url(#paint0_linear)"/>
</g>
<defs>
<filter id="filter0_d" x="0.921143" y="0.0554199" width="133.174" height="133.797" filterUnits="userSpaceOnUse" color-interpolation-filters="sRGB">
<feFlood flood-opacity="0" result="BackgroundImageFix"/>
<feColorMatrix in="SourceAlpha" type="matrix" values="0 0 0 0 0 0 0 0 0 0 0 0 0 0 0 0 0 0 127 0"/>
<feMorphology radius="1" operator="erode" in="SourceAlpha" result="effect1_dropShadow"/>
<feOffset/>
<feGaussianBlur stdDeviation="4.5"/>
<feColorMatrix type="matrix" values="0 0 0 0 0.322445 0 0 0 0 0.895833 0 0 0 0 0.294878 0 0 0 1 0"/>
<feBlend mode="normal" in2="BackgroundImageFix" result="effect1_dropShadow"/>
<feBlend mode="normal" in="SourceGraphic" in2="effect1_dropShadow" result="shape"/>
</filter>
<linearGradient id="paint0_linear" x1="55.9724" y1="56.7318" x2="100.597" y2="81.2103" gradientUnits="userSpaceOnUse">
<stop stop-color="#52E44B"/>
<stop offset="1" stop-color="#379633"/>
</linearGradient>
</defs>
</svg>
