<svg width="16" height="16" viewBox="0 0 16 16" fill="none" xmlns="http://www.w3.org/2000/svg">
<path d="M5.4919 16C5.23873 16 4.98557 15.9509 4.74734 15.8528C4.25169 15.6473 3.85914 15.2413 3.67069 14.7385L3.16437 13.3889C3.06837 13.1329 2.86712 12.9316 2.61182 12.8356L1.26139 12.3293C0.75933 12.1409 0.353275 11.7484 0.147759 11.2528C-0.0577574 10.7571 -0.0485127 10.1918 0.174071 9.70329L0.770708 8.39133C0.883067 8.14316 0.883067 7.85801 0.770708 7.60913L0.174071 6.29645C-0.0485127 5.80864 -0.0577574 5.24333 0.147048 4.7477C0.351853 4.25207 0.758619 3.85955 1.26139 3.67111L2.61111 3.16481C2.86712 3.06881 3.06837 2.86757 3.16437 2.61158L3.67069 1.26122C3.85914 0.759189 4.25169 0.353156 4.74734 0.14765C5.24371 -0.0578548 5.80764 -0.0486107 6.29689 0.173961L7.60893 0.770566C7.85711 0.882918 8.14157 0.882918 8.39117 0.770566L9.70392 0.173961C10.1925 -0.0486107 10.7571 -0.0578548 11.2528 0.14765C11.7484 0.353156 12.141 0.759189 12.3294 1.26193L12.8357 2.61158C12.9317 2.86757 13.133 3.06881 13.3883 3.16481L14.7387 3.67111C15.2408 3.85955 15.6468 4.25207 15.8523 4.7477C16.0579 5.24333 16.0486 5.80864 15.826 6.29716L15.2294 7.60913C15.117 7.8573 15.117 8.14245 15.2294 8.39133L15.8253 9.704C16.0479 10.1925 16.0571 10.7571 15.8516 11.2528C15.6461 11.7484 15.2401 12.1409 14.7373 12.3293L13.389 12.8356C13.133 12.9316 12.9317 13.1329 12.8357 13.3882L12.3294 14.7385C12.141 15.2406 11.7484 15.6466 11.2528 15.8521C10.7564 16.0569 10.1925 16.0484 9.70321 15.8258L8.39117 15.2292C8.14228 15.1168 7.85782 15.1161 7.60893 15.2292L6.29618 15.8251C6.04231 15.9417 5.76639 16 5.4919 16Z" fill="#4CADD8"/>
<path d="M10 7L7.25 10L6 8.63636" stroke="white" stroke-linecap="round" stroke-linejoin="round"/>
</svg>
