<svg width="212" height="214" viewBox="0 0 212 214" fill="none" xmlns="http://www.w3.org/2000/svg">
<path d="M83.846 27.3054C83.2249 24.9875 84.5989 22.5936 86.9449 22.0892C101.729 18.9101 117.115 19.6394 131.572 24.2417C147.412 29.284 161.474 38.7638 172.089 51.5567C182.704 64.3495 189.427 79.9185 191.46 96.4169C193.494 112.915 190.753 129.651 183.562 144.638C176.371 159.626 165.032 172.237 150.891 180.974C136.749 189.712 120.398 194.211 103.777 193.936C87.1562 193.661 70.9627 188.625 57.1175 179.425C44.4807 171.028 34.2842 159.483 27.5125 145.962C26.438 143.816 27.4454 141.247 29.6421 140.281C31.8387 139.315 34.3917 140.319 35.4782 142.458C41.5727 154.461 50.675 164.71 61.9271 172.187C74.3877 180.468 88.9619 185 103.921 185.247C118.88 185.494 133.596 181.446 146.323 173.582C159.051 165.718 169.255 154.368 175.727 140.879C182.199 127.391 184.666 112.329 182.836 97.48C181.005 82.6314 174.955 68.6193 165.401 57.1058C155.848 45.5922 143.192 37.0604 128.936 32.5223C116.063 28.4243 102.372 27.7382 89.1967 30.4949C86.8479 30.9863 84.4671 29.6233 83.846 27.3054Z" fill="url(#paint0_linear)"/>
<defs>
<linearGradient id="paint0_linear" x1="85.2503" y1="88.4536" x2="165.684" y2="132.575" gradientUnits="userSpaceOnUse">
<stop stop-color="#FEDC9A"/>
<stop offset="1" stop-color="#FFBD3B"/>
</linearGradient>
</defs>
</svg>
